<?xml version="1.0" encoding="iso-8859-1"?>
<!-- Generator: Adobe Illustrator 16.0.0, SVG Export Plug-In . SVG Version: 6.00 Build 0)  -->
<!DOCTYPE svg PUBLIC "-//W3C//DTD SVG 1.1//EN" "http://www.w3.org/Graphics/SVG/1.1/DTD/svg11.dtd">
<svg version="1.1" id="Capa_1" xmlns="http://www.w3.org/2000/svg" xmlns:xlink="http://www.w3.org/1999/xlink" x="0px" y="0px"
	 width="512px" height="512px" viewBox="0 0 512 512" style="enable-background:new 0 0 512 512;" xml:space="preserve">
<g>
	<path d="M487.654,288.97c1.406-10.4,2.215-20.973,2.215-31.736c0-129.153-105.27-233.872-235.102-233.872
		c-12.904,0-25.555,1.06-37.866,3.08c-22.072-14.384-48.342-22.767-76.612-22.767C62.766,3.675,0,66.483,0,143.981
		c0,28.198,8.299,54.394,22.59,76.389c-1.925,12.017-2.909,24.323-2.909,36.859c0,129.176,105.217,233.882,235.085,233.882
		c14.657,0,28.927-1.429,42.796-3.935c21.549,13.369,46.934,21.148,74.145,21.148C449.211,508.327,512,445.503,512,368.013
		C511.996,338.72,503.039,311.485,487.654,288.97z M276.74,429.597c-74.705,3.894-109.664-12.637-141.689-42.691
		c-35.765-33.565-21.398-71.854,7.74-73.801c29.122-1.942,46.607,33.015,62.15,42.736c15.524,9.688,74.594,31.76,105.793-3.908
		c33.977-38.828-22.594-58.92-64.06-65.002c-59.203-8.766-133.95-40.792-128.135-103.907c5.816-63.074,53.582-95.414,103.85-99.976
		c64.077-5.817,105.792,9.707,138.786,37.86c38.148,32.529,17.508,68.894-6.799,71.82c-24.213,2.909-51.404-53.504-104.792-54.352
		c-55.027-0.864-92.217,57.261-24.286,73.784c67.967,16.505,140.75,23.286,166.961,85.417
		C418.49,359.714,351.508,425.702,276.74,429.597z"/>
</g>
<g>
</g>
<g>
</g>
<g>
</g>
<g>
</g>
<g>
</g>
<g>
</g>
<g>
</g>
<g>
</g>
<g>
</g>
<g>
</g>
<g>
</g>
<g>
</g>
<g>
</g>
<g>
</g>
<g>
</g>
</svg>
